<?xml version="1.0" standalone="no"?>
<!DOCTYPE svg PUBLIC "-//W3C//DTD SVG 20010904//EN"
 "http://www.w3.org/TR/2001/REC-SVG-20010904/DTD/svg10.dtd">
<svg version="1.0" xmlns="http://www.w3.org/2000/svg"
 width="128.000000pt" height="128.000000pt" viewBox="0 0 128.000000 128.000000"
 preserveAspectRatio="xMidYMid meet">

<g transform="translate(0.000000,128.000000) scale(0.100000,-0.100000)"
fill="#000000" stroke="none">
<path d="M280 778 l0 -62 -43 42 c-40 40 -44 41 -60 25 -16 -16 -15 -20 25
-60 l42 -43 -52 0 c-49 0 -52 -2 -52 -25 0 -23 3 -25 50 -25 28 0 50 -3 50 -7
0 -4 -14 -22 -32 -40 -30 -31 -31 -34 -15 -50 16 -16 20 -15 62 27 39 38 43
46 31 59 -20 23 -23 55 -7 74 17 21 30 21 53 0 18 -16 21 -15 66 30 43 43 45
48 30 63 -14 15 -19 13 -54 -20 l-39 -37 -3 56 c-3 51 -5 55 -27 55 -24 0 -25
-3 -25 -62z"/>
<path d="M448 598 l-26 -53 -23 48 c-13 26 -26 47 -30 47 -3 0 -9 -17 -12 -37
-4 -21 -9 -53 -13 -70 -4 -20 -2 -33 3 -33 6 0 14 19 19 43 l9 42 24 -39 24
-39 19 37 c10 20 20 36 23 36 2 0 9 -18 15 -40 6 -22 15 -40 21 -40 6 0 8 8 5
18 -2 9 -10 43 -16 75 -6 31 -12 57 -14 57 -1 0 -13 -24 -28 -52z"/>
<path d="M520 575 l0 -75 35 0 c39 0 48 17 13 22 -21 3 -23 9 -26 66 -4 88
-22 78 -22 -13z"/>
<path d="M617 632 c-10 -10 -17 -35 -17 -55 0 -86 110 -108 139 -27 11 33 7
55 -17 83 -20 23 -84 23 -105 -1z m91 -14 c15 -15 16 -53 2 -79 -22 -41 -90
-10 -90 41 0 33 17 50 50 50 14 0 31 -5 38 -12z"/>
<path d="M762 578 c3 -70 19 -97 26 -43 4 33 18 32 37 -5 9 -16 20 -30 25 -30
14 0 13 7 -6 36 -15 23 -15 26 0 43 9 9 16 23 16 29 0 21 -32 42 -66 42 l-35
0 3 -72z m71 40 c7 -20 -4 -38 -22 -38 -24 0 -30 8 -24 31 6 21 39 26 46 7z"/>
<path d="M880 576 l0 -76 31 0 c17 0 39 5 50 10 19 11 26 50 12 64 -5 4 -8 22
-8 39 0 30 -2 32 -42 35 l-43 3 0 -75z m68 37 c-2 -10 -13 -19 -26 -21 -17 -3
-22 2 -22 17 0 16 6 21 26 21 19 0 25 -5 22 -17z m6 -52 c11 -18 -6 -41 -30
-41 -19 0 -24 5 -24 25 0 20 5 25 24 25 14 0 27 -4 30 -9z"/>
<path d="M1000 575 c0 -43 4 -75 10 -75 6 0 10 32 10 75 0 43 -4 75 -10 75 -6
0 -10 -32 -10 -75z"/>
<path d="M1040 640 c0 -5 9 -10 20 -10 18 0 20 -7 20 -65 0 -37 4 -65 10 -65
6 0 10 28 10 65 0 58 2 65 20 65 11 0 20 5 20 10 0 6 -22 10 -50 10 -27 0 -50
-4 -50 -10z"/>
</g>
</svg>
